<?xml version="1.0" standalone="no"?>
<!DOCTYPE svg PUBLIC "-//W3C//DTD SVG 20010904//EN"
 "http://www.w3.org/TR/2001/REC-SVG-20010904/DTD/svg10.dtd">
<svg version="1.0" xmlns="http://www.w3.org/2000/svg"
 width="737.000000pt" height="737.000000pt" viewBox="0 0 737.000000 737.000000"
 preserveAspectRatio="xMidYMid meet">

<g transform="translate(0.000000,737.000000) scale(0.100000,-0.100000)"
fill="#000000" stroke="none">
<path d="M3578 6150 c-87 -11 -128 -20 -128 -28 0 -4 31 -25 68 -46 116 -68
180 -123 438 -378 l251 -249 64 35 c160 87 322 63 445 -66 95 -98 138 -206
132 -329 l-3 -70 45 7 c62 8 131 31 155 52 40 34 83 98 99 150 10 28 20 52 23
52 3 0 2 -7 -1 -16 -3 -8 -2 -12 4 -9 6 3 11 18 11 33 1 24 3 23 9 -8 l7 -35
8 32 c4 18 12 31 18 30 19 -4 24 47 11 114 -37 195 -194 373 -439 496 -143 72
-344 143 -545 192 -152 37 -524 60 -672 41z"/>
<path d="M2805 5690 c-205 -37 -387 -159 -536 -360 -60 -81 -145 -234 -174
-315 -10 -27 -26 -74 -37 -104 -31 -87 -79 -337 -89 -466 -36 -456 110 -890
405 -1202 174 -185 365 -273 561 -259 77 5 152 23 195 46 18 10 14 14 -46 46
-170 90 -362 301 -472 521 -58 115 -131 360 -132 441 0 21 3 19 32 -15 48 -56
337 -370 462 -503 60 -63 141 -149 180 -190 38 -41 92 -99 120 -127 l50 -53
-39 -42 c-49 -53 -72 -90 -50 -82 10 4 15 0 15 -15 0 -13 9 -25 23 -31 12 -5
31 -22 42 -36 11 -15 32 -39 48 -53 15 -14 27 -31 27 -37 0 -6 6 -17 14 -24 8
-6 12 -18 9 -25 -2 -8 4 -27 15 -42 23 -32 30 -63 19 -80 -5 -9 -2 -13 8 -13
13 0 16 -6 11 -26 -4 -16 -3 -23 3 -19 6 3 14 -9 19 -27 7 -29 12 -33 36 -30
19 3 26 0 22 -7 -4 -6 -2 -11 3 -11 24 0 8 -18 -31 -36 -24 -10 -46 -22 -49
-26 -3 -5 -14 -10 -25 -12 -10 -2 -55 -16 -99 -30 -155 -51 -222 -59 -420 -53
-159 5 -193 9 -293 36 -103 29 -260 87 -272 101 -12 15 -44 20 -52 8 -6 -9 -8
-7 -4 7 4 14 -1 24 -15 33 -12 8 -19 10 -16 5 8 -14 -19 -32 -34 -22 -11 7
-10 9 5 9 17 0 17 2 4 22 -13 19 -64 36 -52 16 8 -13 -10 -10 -25 5 -11 10
-13 9 -7 -3 4 -8 -4 -3 -17 12 -14 15 -28 24 -32 20 -4 -4 -5 2 -1 14 4 14 2
21 -8 21 -8 0 -12 -7 -9 -16 3 -9 -23 12 -57 47 -34 34 -65 62 -67 62 -10 0
158 -179 247 -264 256 -243 663 -448 1080 -545 166 -39 316 -55 525 -55 408
-1 709 63 1070 227 521 235 756 455 881 822 36 105 45 299 20 418 -32 155
-105 298 -215 418 -66 72 -197 173 -212 163 -5 -3 -9 0 -9 6 0 12 -150 84
-158 75 -3 -3 -15 1 -26 8 -13 8 -31 11 -46 6 -23 -7 -23 -7 7 -8 17 -1 35 -6
39 -13 5 -8 -3 -9 -29 -5 -20 3 -39 2 -41 -2 -3 -4 0 -8 7 -8 7 0 27 -3 45 -7
19 -5 32 -4 32 2 0 5 7 13 16 16 8 3 13 2 9 -3 -3 -5 -2 -11 2 -14 5 -2 2 -2
-4 -1 -7 2 -13 -1 -13 -5 0 -15 -32 -22 -47 -10 -10 9 -20 9 -36 1 -12 -6 -32
-14 -44 -17 -23 -6 -32 -25 -13 -25 6 0 10 -11 10 -23 0 -24 -28 -57 -48 -57
-6 0 -16 -9 -22 -19 -8 -16 -6 -22 7 -30 15 -9 14 -10 -10 -11 -50 0 -106 -43
-86 -66 5 -7 0 -18 -15 -31 l-24 -21 -10 22 -11 21 -7 -22 c-3 -12 -15 -25
-26 -29 -18 -5 -17 -8 13 -22 53 -24 53 -26 -8 -48 l-38 -14 55 5 c51 6 53 5
29 -8 -24 -13 -127 -28 -207 -30 -18 0 -28 -3 -23 -7 6 -3 -6 -15 -27 -25 -72
-38 -139 -94 -222 -186 -85 -95 -110 -110 -152 -88 -34 18 -25 -7 21 -60 l48
-53 95 93 c139 137 216 176 379 195 l60 7 -7 -44 c-22 -157 -126 -304 -275
-386 -35 -20 -66 -38 -68 -39 -8 -7 48 -46 117 -81 60 -30 86 -37 150 -41 104
-6 209 11 274 42 l53 26 -30 -25 c-70 -59 -225 -89 -338 -66 -116 25 -187 71
-342 225 -78 77 -170 173 -205 211 -35 39 -113 122 -174 185 -61 64 -152 159
-203 212 -69 73 -97 96 -112 93 -12 -2 -21 1 -21 7 0 5 7 8 15 4 28 -10 15 9
-40 64 -30 30 -55 49 -55 42 0 -7 4 -12 10 -12 5 0 7 -6 5 -12 -7 -19 13 -46
23 -31 5 8 11 4 19 -13 12 -26 5 -32 -15 -12 -9 9 -12 2 -13 -35 -2 -60 -2
-64 -11 -73 -4 -4 -3 -13 3 -20 14 -17 7 -60 -8 -57 -7 2 -10 -4 -6 -13 5 -13
7 -13 14 -2 7 10 9 9 9 -4 0 -9 -5 -20 -10 -23 -6 -4 -9 -22 -7 -41 3 -19 0
-34 -6 -34 -5 0 -7 9 -4 20 4 14 0 20 -12 20 -25 0 -647 634 -811 825 -82 96
-144 207 -88 159 l22 -19 -23 32 c-12 18 -20 37 -16 42 6 10 45 11 45 1 0 -10
59 1 66 11 9 15 26 10 20 -6 -3 -8 -3 -15 -1 -15 9 0 50 25 58 35 5 6 12 4 19
-7 11 -15 13 -15 26 0 13 16 13 16 8 -1 -3 -11 -2 -16 4 -12 16 10 12 17 -27
60 -80 89 -152 294 -137 394 15 102 64 194 151 284 86 89 215 177 259 177 19
0 160 -108 169 -129 4 -9 -17 -38 -56 -77 -35 -35 -58 -67 -55 -73 4 -6 11 -9
15 -7 11 7 51 -40 43 -49 -4 -4 -2 -5 3 -3 6 1 59 -46 119 -106 l109 -110 -23
-41 c-21 -39 -21 -42 -6 -79 9 -21 24 -40 35 -43 10 -2 23 -15 29 -27 10 -23
48 -32 68 -15 9 8 11 4 6 -13 -5 -21 -4 -22 11 -9 22 18 22 3 0 -23 -10 -12
-1 -6 19 13 21 19 35 38 32 43 -3 5 -1 7 4 6 5 -2 37 23 70 55 33 31 64 57 68
57 4 0 62 -53 128 -118 67 -65 145 -137 174 -160 140 -110 348 -197 542 -228
136 -22 376 -15 501 15 169 39 327 129 443 252 182 193 267 415 253 662 -6
111 -44 300 -60 290 -5 -3 -7 3 -3 13 3 11 1 26 -4 34 -6 9 -8 -5 -7 -43 1
-31 -1 -57 -4 -57 -9 0 -19 52 -15 76 2 10 1 13 -1 7 -7 -19 -20 -16 -37 9
-17 23 -16 24 -20 -24 -1 -7 5 -13 12 -13 16 0 16 -13 -1 -30 -12 -12 -17 -12
-35 1 -20 14 -22 13 -29 -13 -4 -15 -6 -35 -5 -44 4 -22 -24 -42 -48 -36 -11
3 -18 1 -14 -4 3 -5 0 -9 -6 -9 -7 0 -9 -7 -6 -15 6 -16 -10 -54 -29 -67 -6
-5 -6 -11 2 -16 9 -6 7 -12 -7 -25 -11 -9 -25 -17 -30 -17 -6 0 -13 -7 -17
-15 -3 -9 -22 -23 -42 -31 -34 -15 -35 -16 -17 -30 19 -13 19 -14 -7 -14 -15
0 -27 -3 -28 -7 -4 -46 -21 -66 -46 -56 -7 3 -16 -3 -20 -13 -11 -29 -31 -46
-45 -38 -8 5 -9 2 -5 -9 3 -9 2 -19 -4 -22 -5 -4 -7 -11 -4 -16 3 -5 -2 -6
-11 -2 -12 4 -15 2 -12 -8 5 -12 -18 -66 -33 -79 -10 -9 -29 -72 -24 -81 3 -4
-4 -13 -15 -19 -11 -6 -20 -20 -20 -31 0 -29 -18 -59 -36 -59 -8 0 -12 4 -9
10 3 5 2 17 -3 26 -8 15 -10 15 -16 -1 -3 -9 -4 -20 -1 -24 2 -5 -7 -19 -20
-31 -14 -13 -25 -30 -25 -38 0 -8 -6 -12 -15 -8 -8 3 -21 -4 -30 -17 -13 -19
-17 -20 -25 -7 -8 13 -10 12 -10 -2 0 -10 -6 -18 -13 -18 -8 0 -21 -8 -30 -18
-13 -15 -14 -21 -4 -31 9 -11 9 -14 0 -18 -7 -3 -13 -11 -13 -18 0 -7 -6 -16
-12 -19 -10 -5 -10 -7 0 -12 18 -9 15 -42 -5 -47 -12 -3 -10 -5 7 -6 14 -1 31
-5 38 -10 20 -12 -142 -2 -229 15 -106 20 -268 76 -329 113 -28 17 -53 31 -56
31 -10 0 -97 62 -159 113 -33 27 -216 202 -406 389 -191 186 -377 363 -415
393 -155 124 -363 185 -529 155z m80 -1091 c-4 -5 -12 -3 -21 5 -20 21 -17 28
6 16 11 -6 18 -15 15 -21z m-657 -55 c-10 -9 108 -184 165 -246 34 -38 35 -49
1 -17 -39 36 -110 130 -139 185 -14 27 -30 53 -36 59 -12 13 -11 25 3 25 6 0
9 -3 6 -6z m226 -270 c3 -8 2 -12 -4 -9 -6 3 -10 10 -10 16 0 14 7 11 14 -7z
m146 -14 c0 -5 -4 -10 -10 -10 -5 0 -10 5 -10 10 0 6 5 10 10 10 6 0 10 -4 10
-10z m130 -40 c10 0 26 -3 35 -6 13 -5 14 -8 3 -15 -10 -7 -8 -9 7 -10 11 -1
23 -1 28 0 4 0 7 -3 7 -9 0 -5 7 -10 15 -10 8 0 15 -7 15 -15 0 -8 5 -15 11
-15 5 0 7 -4 4 -10 -3 -5 2 -10 13 -10 15 0 18 -6 15 -27 -2 -18 0 -22 4 -13
5 8 16 16 26 16 12 1 15 -2 8 -10 -6 -7 2 -21 22 -41 17 -16 28 -25 24 -18 -4
6 -3 14 2 18 6 3 8 -3 6 -15 -4 -21 37 -124 54 -134 6 -4 8 -13 5 -20 -3 -8 0
-17 7 -22 8 -4 10 -3 5 4 -11 18 0 14 15 -5 12 -14 12 -16 0 -9 -9 6 -12 4 -9
-5 3 -8 14 -15 26 -17 12 -2 22 -7 22 -12 0 -5 6 -15 14 -23 8 -7 24 -31 35
-53 12 -21 24 -37 27 -34 3 3 7 -19 8 -48 3 -55 22 -81 59 -82 24 0 21 -24 -5
-36 -13 -6 -18 -9 -11 -8 7 2 10 -3 6 -12 -5 -14 12 -20 20 -6 2 4 2 1 0 -7
-2 -7 1 -19 7 -26 7 -8 3 -15 -14 -25 -20 -10 -23 -16 -13 -31 8 -13 15 -15
29 -8 14 7 20 6 24 -6 9 -22 -3 -30 -21 -15 -18 15 -20 0 -2 -20 6 -8 0 -4
-15 9 -15 13 -25 28 -22 32 3 5 1 9 -4 9 -15 0 -53 39 -382 389 -198 211 -198
211 -287 304 -74 77 -82 89 -74 110 7 18 17 25 36 25 19 0 23 -3 14 -9 -10 -6
-10 -9 -2 -9 6 0 14 4 17 8 3 5 33 9 67 10 34 1 65 4 68 8 3 3 12 -4 20 -15 7
-12 22 -21 31 -21z m-276 19 c-2 -4 2 -9 8 -12 7 -2 10 -7 7 -11 -3 -3 -13 2
-22 12 -14 15 -15 19 -2 19 8 0 12 -4 9 -8z m2813 -245 c-3 -3 -12 -4 -19 -1
-8 3 -5 6 6 6 11 1 17 -2 13 -5z m-37 -14 c0 -5 -4 -10 -10 -10 -5 0 -10 5
-10 10 0 6 5 10 10 10 6 0 10 -4 10 -10z m-1615 -140 c3 -5 1 -10 -4 -10 -6 0
-11 5 -11 10 0 6 2 10 4 10 3 0 8 -4 11 -10z m-353 -412 c-6 -6 -15 -8 -19 -4
-4 4 -1 11 7 16 19 12 27 3 12 -12z m78 -111 c0 -4 -4 -5 -10 -2 -16 10 -12
-6 7 -29 10 -12 1 -6 -20 13 -24 23 -33 37 -25 42 12 8 48 -10 48 -24z m51
-84 c13 -16 12 -17 -3 -4 -17 13 -22 21 -14 21 2 0 10 -8 17 -17z m-1161 -648
c-10 -12 -40 -11 -40 2 0 3 7 3 15 -1 9 -3 15 0 15 10 0 8 5 12 10 9 8 -5 7
-11 0 -20z m1975 -186 c78 -52 216 -110 327 -138 100 -26 286 -45 359 -38 32
4 59 3 59 -2 0 -4 -24 -9 -52 -10 -29 -1 -61 -4 -70 -7 -21 -6 -200 12 -289
31 -133 27 -284 101 -394 193 -41 34 -23 26 60 -29z m782 -175 c-3 -3 -12 -4
-19 -1 -8 3 -5 6 6 6 11 1 17 -2 13 -5z"/>
<path d="M3220 3475 c0 -8 -5 -15 -12 -15 -6 0 -9 -2 -7 -5 7 -6 49 6 49 15 0
4 -7 10 -15 14 -9 3 -15 0 -15 -9z"/>
<path d="M5750 5656 c0 -9 5 -16 10 -16 6 0 10 4 10 9 0 6 -4 13 -10 16 -5 3
-10 -1 -10 -9z"/>
<path d="M5650 5579 c0 -5 5 -7 10 -4 6 3 10 8 10 11 0 2 -4 4 -10 4 -5 0 -10
-5 -10 -11z"/>
<path d="M2815 4781 c-3 -5 -2 -12 3 -15 5 -3 9 1 9 9 0 17 -3 19 -12 6z"/>
<path d="M2830 4746 c0 -2 8 -10 18 -17 15 -13 16 -12 3 4 -13 16 -21 21 -21
13z"/>
<path d="M2891 4674 c-1 -15 28 -39 36 -30 3 3 1 6 -6 6 -7 0 -9 5 -5 12 4 6
3 8 -4 4 -5 -3 -13 0 -15 6 -4 8 -6 9 -6 2z"/>
<path d="M2940 4545 c13 -14 26 -25 28 -25 3 0 -5 11 -18 25 -13 14 -26 25
-28 25 -3 0 5 -11 18 -25z"/>
<path d="M3060 4536 c0 -2 7 -7 16 -10 8 -3 12 -2 9 4 -6 10 -25 14 -25 6z"/>
<path d="M3081 4486 c-9 -10 -7 -17 6 -27 16 -12 17 -12 6 2 -10 12 -10 18 -1
27 7 7 9 12 6 12 -3 0 -11 -6 -17 -14z"/>
<path d="M3140 4440 c0 -5 5 -10 11 -10 5 0 7 5 4 10 -3 6 -8 10 -11 10 -2 0
-4 -4 -4 -10z"/>
<path d="M3130 4417 c0 -17 107 -131 112 -120 4 7 -44 60 -49 55 -2 -1 -6 -2
-10 -2 -5 0 -1 4 7 10 12 7 11 10 -5 16 -11 5 -28 17 -37 29 -10 11 -17 16
-18 12z"/>
<path d="M3160 4416 c0 -2 7 -9 15 -16 13 -11 14 -10 9 4 -5 14 -24 23 -24 12z"/>
<path d="M3273 4368 c-9 -11 -14 -48 -8 -48 2 0 9 8 16 17 10 11 10 14 2 9
-16 -9 -17 6 -1 22 7 7 9 12 6 12 -3 0 -10 -6 -15 -12z"/>
<path d="M3230 4340 c0 -5 5 -10 11 -10 5 0 7 5 4 10 -3 6 -8 10 -11 10 -2 0
-4 -4 -4 -10z"/>
<path d="M5067 4069 c7 -7 15 -10 18 -7 3 3 -2 9 -12 12 -14 6 -15 5 -6 -5z"/>
<path d="M3592 3765 c0 -16 2 -22 5 -12 2 9 2 23 0 30 -3 6 -5 -1 -5 -18z"/>
<path d="M4590 3570 c-9 -6 -10 -10 -3 -10 6 0 15 5 18 10 8 12 4 12 -15 0z"/>
<path d="M4130 3371 c0 -6 4 -13 10 -16 6 -3 7 1 4 9 -7 18 -14 21 -14 7z"/>
<path d="M4215 3316 c-10 -11 -16 -46 -9 -46 6 0 26 52 22 55 -2 2 -7 -2 -13
-9z"/>
<path d="M3870 1409 c0 -123 -1 -129 -17 -113 -40 40 -146 58 -206 35 -39 -15
-96 -70 -119 -115 -26 -52 -35 -160 -18 -221 14 -49 76 -128 119 -149 67 -34
168 -24 221 21 l30 25 0 -31 0 -31 60 0 60 0 0 355 0 355 -65 0 -65 0 0 -131z
m-39 -228 c38 -37 39 -41 39 -106 0 -60 -3 -69 -28 -95 -60 -60 -154 -45 -191
29 -26 49 -27 105 -3 151 20 41 53 60 106 60 31 0 45 -7 77 -39z"/>
<path d="M2187 1416 c-169 -61 -245 -263 -162 -431 28 -59 73 -103 138 -137
59 -31 172 -31 244 1 45 20 104 67 92 73 -2 2 -20 18 -40 35 l-35 33 -39 -20
c-55 -28 -132 -27 -175 3 -57 38 -74 70 -78 145 -3 57 0 72 20 101 53 78 136
101 220 61 l46 -21 41 39 c23 22 41 44 41 48 0 13 -64 54 -107 70 -49 17 -157
17 -206 0z"/>
<path d="M4102 1043 l3 -388 60 0 60 0 -3 118 c-3 109 4 138 24 106 11 -18 86
-49 120 -49 52 0 121 30 164 72 61 58 90 127 90 214 0 107 -22 167 -84 230
-72 71 -117 84 -298 84 l-138 0 2 -387z m286 243 c67 -35 108 -113 97 -185
-14 -93 -63 -141 -143 -141 -37 0 -50 6 -78 34 l-34 34 0 136 0 136 65 0 c37
0 78 -6 93 -14z"/>
<path d="M2560 1105 c0 -126 3 -240 6 -252 6 -21 13 -23 65 -23 l59 0 0 141
c0 125 2 146 20 174 25 40 74 65 127 65 39 0 40 0 51 51 18 79 18 79 -37 79
-63 0 -98 -13 -137 -51 l-31 -30 1 38 1 38 -62 0 -63 0 0 -230z"/>
<path d="M2950 1171 c0 -91 5 -184 11 -206 15 -54 82 -120 137 -135 57 -15
141 2 182 37 17 13 31 22 31 19 1 -3 3 -10 4 -16 1 -5 3 -17 4 -25 1 -13 12
-15 59 -13 31 2 56 6 55 11 -2 4 -3 115 -3 247 l0 240 -60 0 -60 0 0 -140 c0
-161 -10 -198 -62 -230 -48 -29 -91 -26 -130 9 l-33 29 -3 171 -3 171 -65 -1
-64 -2 0 -166z"/>
<path d="M4790 1331 c-35 -11 -88 -39 -95 -51 -3 -5 6 -27 21 -49 26 -40 26
-40 52 -23 16 10 46 16 84 17 55 0 62 -3 84 -30 29 -36 33 -81 7 -70 -36 14
-133 17 -180 6 -88 -22 -136 -97 -113 -180 25 -95 106 -141 214 -120 28 5 63
18 77 29 29 20 39 17 39 -12 0 -15 8 -18 56 -18 l56 0 -4 193 c-3 190 -3 194
-30 234 -36 55 -99 83 -180 82 -35 0 -74 -4 -88 -8z m153 -302 c23 -13 22 -44
-3 -69 -42 -42 -122 -40 -154 3 -23 31 -16 53 25 75 25 13 99 8 132 -9z"/>
<path d="M5110 1327 c0 -4 41 -109 91 -233 l92 -225 -23 -49 c-13 -27 -38 -64
-56 -81 -24 -23 -34 -42 -34 -62 l0 -30 50 6 c62 7 101 30 126 71 33 55 269
595 263 601 -2 2 -33 5 -69 6 l-65 3 -59 -152 c-33 -83 -63 -149 -67 -147 -4
3 -10 17 -14 32 -10 44 -87 247 -98 260 -10 14 -137 14 -137 0z"/>
</g>
</svg>
